<svg id="Layer_1" data-name="Layer 1" xmlns="http://www.w3.org/2000/svg" viewBox="0 0 288 288"><defs><style>.cls-1{fill:#3f4349;}.cls-2{font-size:16.06px;font-family:Poppins-SemiBold, Poppins;font-weight:600;letter-spacing:0.01em;}.cls-3{fill:#0c3ed4;}.cls-4{fill:#b5c7fb;}.cls-5{fill:#fff;}</style></defs><title>prim-logo-</title><path class="cls-1" d="M116.17,174.92v-4.51h1.4a1,1,0,0,1,.61.18.67.67,0,0,1,.24.57v.54a1.07,1.07,0,0,1-.07.38.72.72,0,0,1-.16.27.66.66,0,0,1-.26.14l-.25,0v0a1,1,0,0,1,.3,0,.47.47,0,0,1,.24.13.91.91,0,0,1,.18.27,1.14,1.14,0,0,1,.06.39V174a1.12,1.12,0,0,1-.12.58.56.56,0,0,1-.34.27,1.62,1.62,0,0,1-.52.08Zm.48-2.51h.67a.64.64,0,0,0,.47-.16.74.74,0,0,0,.16-.49v-.52a.54.54,0,0,0-.15-.42.52.52,0,0,0-.36-.13h-.79Zm0,2.23h.75a.75.75,0,0,0,.31,0,.39.39,0,0,0,.2-.2A1,1,0,0,0,118,174v-.62c0-.25-.06-.41-.19-.49a.83.83,0,0,0-.46-.12h-.68Z"/><path class="cls-1" d="M120.6,175a1,1,0,0,1-.58-.14.67.67,0,0,1-.25-.37,2.63,2.63,0,0,1,0-.49v-2.84h.47v2.78c0,.11,0,.22,0,.33a.4.4,0,0,0,.14.27.7.7,0,0,0,.41.1.57.57,0,0,0,.31-.07.71.71,0,0,0,.18-.16.51.51,0,0,0,.07-.18v-3.07h.47v3.78h-.4l0-.42a.61.61,0,0,1-.25.33A.76.76,0,0,1,120.6,175Z"/><path class="cls-1" d="M123.37,170.67a.24.24,0,0,1-.2-.08.25.25,0,0,1-.09-.2.25.25,0,0,1,.09-.19.24.24,0,0,1,.2-.08.28.28,0,0,1,.21.08.27.27,0,0,1,.08.19.27.27,0,0,1-.29.28Zm-.23,4.25v-3.78h.46v3.78Z"/><path class="cls-1" d="M124.94,174.92v-4.84h.47v4.84Z"/><path class="cls-1" d="M127.59,175a1.19,1.19,0,0,1-.46-.08.56.56,0,0,1-.29-.2.7.7,0,0,1-.14-.34,2.13,2.13,0,0,1,0-.46V172a1.48,1.48,0,0,1,0-.38,1,1,0,0,1,.14-.3.79.79,0,0,1,.27-.2,1.24,1.24,0,0,1,.43-.07,1,1,0,0,1,.47.09.61.61,0,0,1,.25.22v-1.27h.48v4.81h-.33l0-.36a.72.72,0,0,1-.13.19.6.6,0,0,1-.24.16A.9.9,0,0,1,127.59,175Zm.08-.29a.67.67,0,0,0,.35-.08.48.48,0,0,0,.17-.21,1.24,1.24,0,0,0,.06-.29c0-.1,0-.21,0-.31v-2.07a.56.56,0,0,0-.08-.15.49.49,0,0,0-.17-.14.68.68,0,0,0-.31-.06.77.77,0,0,0-.34.06.35.35,0,0,0-.16.16.86.86,0,0,0-.06.23c0,.09,0,.18,0,.27V174a2,2,0,0,0,0,.35.39.39,0,0,0,.13.27A.57.57,0,0,0,127.67,174.69Z"/><path class="cls-1" d="M130.31,170.67a.28.28,0,0,1-.21-.08.24.24,0,0,1-.08-.2.24.24,0,0,1,.08-.19.28.28,0,0,1,.21-.08.27.27,0,0,1,.2.08.25.25,0,0,1,.09.19.25.25,0,0,1-.09.2A.24.24,0,0,1,130.31,170.67Zm-.24,4.25v-3.78h.47v3.78Z"/><path class="cls-1" d="M131.88,174.92v-3.78h.39l.06.41a.56.56,0,0,1,.29-.36,1,1,0,0,1,.45-.11,1,1,0,0,1,.59.14.67.67,0,0,1,.24.37,2.46,2.46,0,0,1,0,.49v2.84h-.47v-2.78a2.26,2.26,0,0,0,0-.26.56.56,0,0,0-.05-.23.4.4,0,0,0-.17-.17.75.75,0,0,0-.33-.06.68.68,0,0,0-.31.07.59.59,0,0,0-.18.17,1.26,1.26,0,0,0-.08.18v3.08Z"/><path class="cls-1" d="M136.1,175.81h-.42l-.19,0-.1,0v-.28l.26,0,.31,0,.22,0a.52.52,0,0,0,.26-.08.59.59,0,0,0,.21-.23.88.88,0,0,0,.09-.44v-.52a.67.67,0,0,1-.39.44,1,1,0,0,1-.38.06l-.27,0a.57.57,0,0,1-.28-.11.69.69,0,0,1-.2-.3,1.62,1.62,0,0,1-.08-.56V172a1.46,1.46,0,0,1,.07-.47.71.71,0,0,1,.18-.27.84.84,0,0,1,.27-.13,1.66,1.66,0,0,1,.32,0,1.77,1.77,0,0,1,.46.07.46.46,0,0,1,.3.29l0-.29h.41v3.44a1.68,1.68,0,0,1-.07.52,1.07,1.07,0,0,1-.21.38.89.89,0,0,1-.34.23A1.42,1.42,0,0,1,136.1,175.81Zm0-1.37a.53.53,0,0,0,.38-.13.66.66,0,0,0,.17-.32,1.72,1.72,0,0,0,0-.39v-1.86l-.09-.15a.44.44,0,0,0-.18-.14.61.61,0,0,0-.32-.07.51.51,0,0,0-.4.14.78.78,0,0,0-.12.5v1.84a.77.77,0,0,0,0,.32.35.35,0,0,0,.14.17.45.45,0,0,0,.18.07Z"/><path class="cls-1" d="M141.25,174.92a1.39,1.39,0,0,1-.3,0,.7.7,0,0,1-.24-.13.54.54,0,0,1-.15-.23.89.89,0,0,1-.05-.35v-2.74h-.34v-.25l.37-.05.08-.71H141v.71h.81v.3H141v2.65a.68.68,0,0,0,.08.36.33.33,0,0,0,.33.15l.23,0h.17v.31l-.21,0A1.72,1.72,0,0,1,141.25,174.92Z"/><path class="cls-1" d="M142.82,174.92v-4.81h.45v1.35a.59.59,0,0,1,.26-.28,1,1,0,0,1,.48-.1,1,1,0,0,1,.59.14.67.67,0,0,1,.24.37,2.46,2.46,0,0,1,0,.49v2.84h-.47v-2.74a1.93,1.93,0,0,0,0-.24.5.5,0,0,0-.06-.24.33.33,0,0,0-.16-.17.64.64,0,0,0-.34-.07.76.76,0,0,0-.32.06.36.36,0,0,0-.17.15.33.33,0,0,0-.07.15v3.1Z"/><path class="cls-1" d="M147.15,175a1.83,1.83,0,0,1-.62-.08.61.61,0,0,1-.34-.33,1.68,1.68,0,0,1-.11-.68V172a.89.89,0,0,1,.24-.72,1.28,1.28,0,0,1,.8-.2,1.24,1.24,0,0,1,.78.2.89.89,0,0,1,.24.72v1h-1.58v1.07a.79.79,0,0,0,.11.5.56.56,0,0,0,.46.14c.22,0,.36,0,.43-.13a.87.87,0,0,0,.11-.51v-.49h.47v.32a1.77,1.77,0,0,1-.1.68.63.63,0,0,1-.33.33A1.46,1.46,0,0,1,147.15,175Zm-.59-2.25h1.11V172a.8.8,0,0,0-.11-.46.52.52,0,0,0-.44-.15.55.55,0,0,0-.45.15.73.73,0,0,0-.11.46Z"/><path class="cls-1" d="M151.37,174.92v-3.34h-.24v-.29h.24v-.46a.89.89,0,0,1,0-.35.57.57,0,0,1,.14-.24.52.52,0,0,1,.22-.12.77.77,0,0,1,.27,0h.25l.24,0h.15v.27a3.75,3.75,0,0,0-.51,0,.27.27,0,0,0-.27.16.84.84,0,0,0-.08.34v.45h.86v.29h-.86v3.34Z"/><path class="cls-1" d="M154.48,175a1,1,0,0,1-.59-.14.65.65,0,0,1-.24-.37,2,2,0,0,1-.05-.49v-2.84h.47v2.78c0,.11,0,.22,0,.33a.4.4,0,0,0,.14.27.69.69,0,0,0,.4.1.58.58,0,0,0,.32-.07.66.66,0,0,0,.17-.16.55.55,0,0,0,.08-.18v-3.07h.47v3.78h-.4l0-.42a.61.61,0,0,1-.25.33A.76.76,0,0,1,154.48,175Z"/><path class="cls-1" d="M157.83,174.92a1.55,1.55,0,0,1-.31,0,.58.58,0,0,1-.23-.13.56.56,0,0,1-.16-.23,1.13,1.13,0,0,1,0-.35v-2.74h-.33v-.25l.36-.05.09-.71h.35v.71h.82v.3h-.82v2.65a.8.8,0,0,0,.08.36c.05.1.16.15.34.15l.23,0h.17v.31l-.21,0A1.77,1.77,0,0,1,157.83,174.92Z"/><path class="cls-1" d="M160.22,175a1,1,0,0,1-.58-.14.67.67,0,0,1-.25-.37,2.63,2.63,0,0,1,0-.49v-2.84h.47v2.78c0,.11,0,.22,0,.33a.4.4,0,0,0,.14.27.7.7,0,0,0,.41.1.57.57,0,0,0,.31-.07.71.71,0,0,0,.18-.16.51.51,0,0,0,.07-.18v-3.07h.47v3.78H161l0-.42a.61.61,0,0,1-.25.33A.76.76,0,0,1,160.22,175Z"/><path class="cls-1" d="M162.76,174.92v-3.78h.39l.06.4a.5.5,0,0,1,.27-.3,1.51,1.51,0,0,1,.38-.12.94.94,0,0,1,.41,0v.36l-.1,0a1,1,0,0,0-.17,0,.45.45,0,0,0-.16,0,.71.71,0,0,0-.43.19.55.55,0,0,0-.18.43v2.81Z"/><path class="cls-1" d="M166.2,175a1.79,1.79,0,0,1-.62-.08.58.58,0,0,1-.34-.33,1.68,1.68,0,0,1-.11-.68V172a.89.89,0,0,1,.24-.72,1.26,1.26,0,0,1,.8-.2,1.24,1.24,0,0,1,.78.2.89.89,0,0,1,.24.72v1H165.6v1.07a.78.78,0,0,0,.12.5c.07.1.23.14.46.14s.36,0,.43-.13a.87.87,0,0,0,.11-.51v-.49h.47v.32a1.75,1.75,0,0,1-.11.68.61.61,0,0,1-.32.33A1.49,1.49,0,0,1,166.2,175Zm-.6-2.25h1.12V172a.8.8,0,0,0-.11-.46.52.52,0,0,0-.44-.15.53.53,0,0,0-.45.15.72.72,0,0,0-.12.46Z"/><path class="cls-1" d="M171.29,175a1.29,1.29,0,0,1-.65-.13.69.69,0,0,1-.31-.38,2,2,0,0,1-.08-.6V172.1a1.74,1.74,0,0,1,.08-.53.64.64,0,0,1,.31-.36,1.29,1.29,0,0,1,.65-.13,1.31,1.31,0,0,1,.66.13.66.66,0,0,1,.3.36,1.74,1.74,0,0,1,.08.53v1.76a2,2,0,0,1-.08.6.69.69,0,0,1-.31.38A1.29,1.29,0,0,1,171.29,175Zm0-.29a.54.54,0,0,0,.38-.11.46.46,0,0,0,.15-.27,1.27,1.27,0,0,0,0-.34v-1.88a1.27,1.27,0,0,0,0-.34.46.46,0,0,0-.15-.26.54.54,0,0,0-.38-.1.58.58,0,0,0-.38.1.46.46,0,0,0-.15.26,1.87,1.87,0,0,0,0,.34V174a1.87,1.87,0,0,0,0,.34.46.46,0,0,0,.15.27A.57.57,0,0,0,171.29,174.68Z"/><path class="cls-1" d="M173.64,174.92v-3.34h-.23v-.29h.23v-.46a1.13,1.13,0,0,1,.05-.35.57.57,0,0,1,.14-.24.59.59,0,0,1,.22-.12.82.82,0,0,1,.28,0h.25l.23,0H175v.27a3.62,3.62,0,0,0-.5,0,.28.28,0,0,0-.28.16.83.83,0,0,0-.07.34v.45H175v.29h-.85v3.34Z"/><path class="cls-1" d="M178.68,174.92a1.39,1.39,0,0,1-.3,0,.7.7,0,0,1-.24-.13.66.66,0,0,1-.15-.23.89.89,0,0,1-.05-.35v-2.74h-.34v-.25l.37-.05.08-.71h.36v.71h.82v.3h-.82v2.65a.8.8,0,0,0,.08.36.33.33,0,0,0,.33.15l.23,0h.18v.31l-.22,0A1.72,1.72,0,0,1,178.68,174.92Z"/><path class="cls-1" d="M180.25,174.92v-4.81h.45v1.35a.59.59,0,0,1,.26-.28,1,1,0,0,1,.48-.1,1,1,0,0,1,.59.14.67.67,0,0,1,.24.37,2.46,2.46,0,0,1,0,.49v2.84h-.47v-2.74a1.93,1.93,0,0,0,0-.24.64.64,0,0,0-.05-.24.4.4,0,0,0-.17-.17.62.62,0,0,0-.33-.07.78.78,0,0,0-.33.06.36.36,0,0,0-.17.15.48.48,0,0,0-.07.15v3.1Z"/><path class="cls-1" d="M184.58,175a1.83,1.83,0,0,1-.62-.08.61.61,0,0,1-.34-.33,1.68,1.68,0,0,1-.11-.68V172a.89.89,0,0,1,.24-.72,1.28,1.28,0,0,1,.8-.2,1.24,1.24,0,0,1,.78.2.89.89,0,0,1,.24.72v1H184v1.07a.79.79,0,0,0,.11.5c.08.1.23.14.47.14a.51.51,0,0,0,.42-.13.87.87,0,0,0,.11-.51v-.49h.47v.32a1.77,1.77,0,0,1-.1.68.63.63,0,0,1-.33.33A1.46,1.46,0,0,1,184.58,175Zm-.59-2.25h1.11V172a.8.8,0,0,0-.11-.46.52.52,0,0,0-.44-.15.55.55,0,0,0-.45.15.73.73,0,0,0-.11.46Z"/><path class="cls-1" d="M188.44,174.92l1-4.51h.62l1,4.51h-.52l-.24-1h-1.11l-.23,1Zm.75-1.32h1.08l-.53-2.6Z"/><path class="cls-1" d="M192.16,174.92v-3.34h-.23v-.29h.23v-.46a1.13,1.13,0,0,1,.05-.35.69.69,0,0,1,.14-.24.68.68,0,0,1,.22-.12.86.86,0,0,1,.28,0h.25l.23,0h.15v.27a3.62,3.62,0,0,0-.5,0,.27.27,0,0,0-.27.16.71.71,0,0,0-.08.34v.45h.85v.29h-.85v3.34Z"/><path class="cls-1" d="M194.44,174.92v-3.78h.4l0,.4a.55.55,0,0,1,.28-.3,1.39,1.39,0,0,1,.38-.12.94.94,0,0,1,.41,0v.36l-.1,0a1,1,0,0,0-.17,0,.41.41,0,0,0-.16,0,.74.74,0,0,0-.44.19.58.58,0,0,0-.17.43v2.81Z"/><path class="cls-1" d="M197.14,170.67a.24.24,0,0,1-.2-.08.25.25,0,0,1-.09-.2.25.25,0,0,1,.09-.19.24.24,0,0,1,.2-.08.28.28,0,0,1,.21.08.24.24,0,0,1,.08.19.24.24,0,0,1-.08.2A.26.26,0,0,1,197.14,170.67Zm-.23,4.25v-3.78h.46v3.78Z"/><path class="cls-1" d="M199.68,175a1.8,1.8,0,0,1-.61-.08.63.63,0,0,1-.34-.32,1.77,1.77,0,0,1-.11-.69V172a1,1,0,0,1,.24-.76,1.28,1.28,0,0,1,.8-.2,1.24,1.24,0,0,1,.78.2.91.91,0,0,1,.24.73v.5h-.47V172a.77.77,0,0,0-.11-.48c-.07-.1-.21-.15-.44-.15a.55.55,0,0,0-.45.15.85.85,0,0,0-.11.48v2a.92.92,0,0,0,.11.51.57.57,0,0,0,.47.15.48.48,0,0,0,.42-.15.8.8,0,0,0,.11-.51v-.52h.47v.39a1.68,1.68,0,0,1-.1.67.59.59,0,0,1-.33.33A1.55,1.55,0,0,1,199.68,175Z"/><path class="cls-1" d="M202.58,175a1.48,1.48,0,0,1-.35-.05.57.57,0,0,1-.31-.23,1,1,0,0,1-.12-.56v-.37a.85.85,0,0,1,.23-.61,2.36,2.36,0,0,1,.64-.42l.42-.22a.8.8,0,0,0,.25-.23.61.61,0,0,0,.08-.32v-.16a.48.48,0,0,0-.07-.29.42.42,0,0,0-.21-.13.75.75,0,0,0-.26,0c-.23,0-.38.06-.45.19a1.11,1.11,0,0,0-.11.55v.32h-.43V172a1.55,1.55,0,0,1,.07-.5.69.69,0,0,1,.29-.34,1.35,1.35,0,0,1,.63-.13,1.73,1.73,0,0,1,.65.1.52.52,0,0,1,.29.29,1.1,1.1,0,0,1,.08.43v3h-.47v-.48a.69.69,0,0,1-.33.4A1.07,1.07,0,0,1,202.58,175Zm.18-.32a.54.54,0,0,0,.5-.25,1.19,1.19,0,0,0,.15-.64v-1.21a.61.61,0,0,1-.25.22l-.36.2a1.7,1.7,0,0,0-.4.32.69.69,0,0,0-.14.45v.3a.8.8,0,0,0,.08.4.31.31,0,0,0,.19.17A.62.62,0,0,0,202.76,174.65Z"/><path class="cls-1" d="M205.17,174.92v-3.78h.39l.06.41a.56.56,0,0,1,.29-.36,1.14,1.14,0,0,1,1,0,.58.58,0,0,1,.24.37,1.89,1.89,0,0,1,.05.49v2.84h-.47v-2.78a2.26,2.26,0,0,0,0-.26.56.56,0,0,0,0-.23.4.4,0,0,0-.17-.17.72.72,0,0,0-.33-.06.68.68,0,0,0-.31.07.59.59,0,0,0-.18.17,1.26,1.26,0,0,0-.08.18v3.08Z"/><path class="cls-1" d="M211.39,175a1.5,1.5,0,0,1-.58-.09.68.68,0,0,1-.32-.24.93.93,0,0,1-.13-.34,2.5,2.5,0,0,1,0-.4v-.28h.48V174c0,.13,0,.25,0,.36a.39.39,0,0,0,.14.26.73.73,0,0,0,.41.09.64.64,0,0,0,.38-.09.42.42,0,0,0,.14-.24,1.39,1.39,0,0,0,0-.27v-.21a.67.67,0,0,0-.07-.33.71.71,0,0,0-.22-.24,1.92,1.92,0,0,0-.38-.19,3.15,3.15,0,0,1-.45-.22.79.79,0,0,1-.41-.75v-.23a.87.87,0,0,1,.23-.63,1.13,1.13,0,0,1,.79-.23,1.57,1.57,0,0,1,.59.1.71.71,0,0,1,.32.32,1.37,1.37,0,0,1,.1.58v.32H212V172a.82.82,0,0,0-.13-.52.53.53,0,0,0-.42-.14.52.52,0,0,0-.43.15.66.66,0,0,0-.11.38v.21a.56.56,0,0,0,.1.35.71.71,0,0,0,.27.24,4.28,4.28,0,0,0,.42.19,2.36,2.36,0,0,1,.39.2.72.72,0,0,1,.27.28,1,1,0,0,1,.1.49V174a1.17,1.17,0,0,1-.08.46.64.64,0,0,1-.29.36A1.31,1.31,0,0,1,211.39,175Z"/><path class="cls-1" d="M213.65,175.8v-4.66h.44l0,.34a.74.74,0,0,1,.22-.28.82.82,0,0,1,.5-.11,1,1,0,0,1,.55.12.63.63,0,0,1,.27.33,1.54,1.54,0,0,1,.08.5v1.86a2.31,2.31,0,0,1-.07.56.69.69,0,0,1-.26.38,1.09,1.09,0,0,1-.57.13,1,1,0,0,1-.46-.09.62.62,0,0,1-.25-.23v1.15Zm1-1.12a.75.75,0,0,0,.33-.06.37.37,0,0,0,.16-.17.52.52,0,0,0,.07-.22v-2.38a.61.61,0,0,0-.07-.24.35.35,0,0,0-.16-.16.76.76,0,0,0-.66,0,.47.47,0,0,0-.17.2,1.31,1.31,0,0,0-.06.27c0,.1,0,.19,0,.28V174a1.86,1.86,0,0,0,0,.34.38.38,0,0,0,.15.24A.64.64,0,0,0,214.69,174.68Z"/><path class="cls-1" d="M217.66,175a1.49,1.49,0,0,1-.36-.05.51.51,0,0,1-.3-.23,1,1,0,0,1-.13-.56v-.37a.85.85,0,0,1,.23-.61,2.53,2.53,0,0,1,.64-.42l.42-.22a.7.7,0,0,0,.25-.23.53.53,0,0,0,.09-.32v-.16a.48.48,0,0,0-.08-.29.39.39,0,0,0-.2-.13.84.84,0,0,0-.27,0,.47.47,0,0,0-.45.19,1.12,1.12,0,0,0-.1.55v.32H217V172a1.54,1.54,0,0,1,.08-.5.64.64,0,0,1,.29-.34,1.27,1.27,0,0,1,.62-.13,1.83,1.83,0,0,1,.66.1.55.55,0,0,1,.29.29,1.33,1.33,0,0,1,.07.43v3h-.47v-.48a.73.73,0,0,1-.33.4A1.14,1.14,0,0,1,217.66,175Zm.17-.32a.53.53,0,0,0,.5-.25,1.1,1.1,0,0,0,.16-.64v-1.21a.68.68,0,0,1-.25.22l-.36.2a1.37,1.37,0,0,0-.4.32.64.64,0,0,0-.14.45v.3a.82.82,0,0,0,.07.4.34.34,0,0,0,.19.17A.66.66,0,0,0,217.83,174.65Z"/><path class="cls-1" d="M221.21,175a1.77,1.77,0,0,1-.61-.08.6.6,0,0,1-.34-.32,1.77,1.77,0,0,1-.11-.69V172a1,1,0,0,1,.24-.76,1.28,1.28,0,0,1,.8-.2,1.24,1.24,0,0,1,.78.2.91.91,0,0,1,.24.73v.5h-.47V172a.85.85,0,0,0-.11-.48.52.52,0,0,0-.44-.15.53.53,0,0,0-.45.15.77.77,0,0,0-.12.48v2a.83.83,0,0,0,.12.51.55.55,0,0,0,.46.15.49.49,0,0,0,.43-.15.87.87,0,0,0,.11-.51v-.52h.47v.39a1.66,1.66,0,0,1-.11.67.61.61,0,0,1-.32.33A1.55,1.55,0,0,1,221.21,175Z"/><path class="cls-1" d="M224.4,175a1.83,1.83,0,0,1-.62-.08.61.61,0,0,1-.34-.33,1.68,1.68,0,0,1-.11-.68V172a.89.89,0,0,1,.24-.72,1.28,1.28,0,0,1,.8-.2,1.24,1.24,0,0,1,.78.2.89.89,0,0,1,.24.72v1h-1.58v1.07a.79.79,0,0,0,.11.5.56.56,0,0,0,.46.14c.22,0,.36,0,.43-.13a.87.87,0,0,0,.11-.51v-.49h.47v.32a1.77,1.77,0,0,1-.1.68.63.63,0,0,1-.33.33A1.46,1.46,0,0,1,224.4,175Zm-.59-2.25h1.11V172a.8.8,0,0,0-.11-.46.52.52,0,0,0-.44-.15.55.55,0,0,0-.45.15.73.73,0,0,0-.11.46Z"/><path class="cls-1" d="M228.79,170.67a.28.28,0,0,1-.21-.08.24.24,0,0,1-.08-.2.24.24,0,0,1,.08-.19.28.28,0,0,1,.21-.08.27.27,0,0,1,.2.08.25.25,0,0,1,.09.19.25.25,0,0,1-.09.2A.24.24,0,0,1,228.79,170.67Zm-.24,4.25v-3.78H229v3.78Z"/><path class="cls-1" d="M230.36,174.92v-3.78h.39l.06.41a.56.56,0,0,1,.29-.36,1,1,0,0,1,.45-.11,1,1,0,0,1,.59.14.67.67,0,0,1,.24.37,2.46,2.46,0,0,1,.05.49v2.84H232v-2.78a2.26,2.26,0,0,0,0-.26.44.44,0,0,0-.06-.23.33.33,0,0,0-.16-.17.77.77,0,0,0-.34-.06.66.66,0,0,0-.3.07.59.59,0,0,0-.18.17,1.26,1.26,0,0,0-.08.18v3.08Z"/><path class="cls-1" d="M234.55,175a1.22,1.22,0,0,1-.46-.08.61.61,0,0,1-.29-.2.81.81,0,0,1-.14-.34,2.13,2.13,0,0,1,0-.46V172a2.11,2.11,0,0,1,0-.38.85.85,0,0,1,.15-.3.67.67,0,0,1,.26-.2,1.29,1.29,0,0,1,.43-.07,1.08,1.08,0,0,1,.48.09.65.65,0,0,1,.24.22v-1.27h.48v4.81h-.33l-.05-.36a.72.72,0,0,1-.13.19.6.6,0,0,1-.24.16A.9.9,0,0,1,234.55,175Zm.09-.29a.66.66,0,0,0,.34-.08.48.48,0,0,0,.17-.21.88.88,0,0,0,.06-.29c0-.1,0-.21,0-.31v-2.07a.56.56,0,0,0-.08-.15.41.41,0,0,0-.17-.14.66.66,0,0,0-.31-.06.77.77,0,0,0-.34.06.35.35,0,0,0-.16.16.86.86,0,0,0-.06.23V174a2,2,0,0,0,0,.35.36.36,0,0,0,.14.27A.54.54,0,0,0,234.64,174.69Z"/><path class="cls-1" d="M237.86,175a1,1,0,0,1-.58-.14.67.67,0,0,1-.25-.37A2.63,2.63,0,0,1,237,174v-2.84h.47v2.78c0,.11,0,.22,0,.33a.4.4,0,0,0,.14.27.7.7,0,0,0,.41.1.57.57,0,0,0,.31-.07.53.53,0,0,0,.17-.16.55.55,0,0,0,.08-.18v-3.07h.47v3.78h-.4l0-.42a.61.61,0,0,1-.25.33A.76.76,0,0,1,237.86,175Z"/><path class="cls-1" d="M241.31,175a1.53,1.53,0,0,1-.58-.09.65.65,0,0,1-.31-.24.78.78,0,0,1-.13-.34,2.5,2.5,0,0,1,0-.4v-.28h.48V174c0,.13,0,.25,0,.36a.36.36,0,0,0,.14.26.7.7,0,0,0,.4.09.62.62,0,0,0,.38-.09.38.38,0,0,0,.15-.24c0-.1,0-.19,0-.27v-.21a.67.67,0,0,0-.07-.33.59.59,0,0,0-.21-.24,1.77,1.77,0,0,0-.39-.19,3,3,0,0,1-.44-.22.76.76,0,0,1-.3-.29.83.83,0,0,1-.11-.46v-.23a.83.83,0,0,1,.23-.63,1.11,1.11,0,0,1,.79-.23,1.51,1.51,0,0,1,.58.1.66.66,0,0,1,.32.32,1.36,1.36,0,0,1,.11.58v.32h-.47V172a.76.76,0,0,0-.13-.52.68.68,0,0,0-.84,0,.59.59,0,0,0-.11.38v.21a.63.63,0,0,0,.09.35.9.9,0,0,0,.27.24,4.28,4.28,0,0,0,.42.19,3,3,0,0,1,.4.2.9.9,0,0,1,.27.28,1.09,1.09,0,0,1,.1.49V174a1.39,1.39,0,0,1-.08.46.66.66,0,0,1-.3.36A1.31,1.31,0,0,1,241.31,175Z"/><path class="cls-1" d="M244.39,174.92a1.39,1.39,0,0,1-.3,0,.7.7,0,0,1-.24-.13.54.54,0,0,1-.15-.23.89.89,0,0,1,0-.35v-2.74h-.34v-.25l.37-.05.08-.71h.36v.71h.81v.3h-.81v2.65a.68.68,0,0,0,.08.36.33.33,0,0,0,.33.15l.23,0h.17v.31l-.21,0A1.72,1.72,0,0,1,244.39,174.92Z"/><path class="cls-1" d="M246,174.92v-3.78h.39l.06.4a.5.5,0,0,1,.27-.3,1.51,1.51,0,0,1,.38-.12.94.94,0,0,1,.41,0v.36l-.1,0a1,1,0,0,0-.17,0,.45.45,0,0,0-.16,0,.71.71,0,0,0-.43.19.55.55,0,0,0-.18.43v2.81Z"/><path class="cls-1" d="M248.54,175.81l-.28,0-.2,0v-.28l.11,0h.18a.87.87,0,0,0,.26,0,.36.36,0,0,0,.23-.21,1.45,1.45,0,0,0,.1-.18.29.29,0,0,0,0-.23l-.87-3.71h.49l.69,3.3h0l.67-3.3h.45l-.83,3.63a1.5,1.5,0,0,1-.36.78A.87.87,0,0,1,248.54,175.81Z"/><path d="M116.18,142.34V118.62h8a5.24,5.24,0,0,1,3.45,1,3.65,3.65,0,0,1,1.2,3v4.22a9.88,9.88,0,0,1-.38,2.83,3.89,3.89,0,0,1-1.44,2.1,5,5,0,0,1-3.07.81h-3.78v9.79Zm4-12h2.45a2,2,0,0,0,1.81-.94,6,6,0,0,0,.6-3.08v-2.12a5.12,5.12,0,0,0-.52-2.69,1.64,1.64,0,0,0-1.45-.81h-2.89Z"/><path d="M135.49,142.66a6.3,6.3,0,0,1-1.91-.28,2.83,2.83,0,0,1-1.52-1.18,4.92,4.92,0,0,1-.63-2.79V136a4.36,4.36,0,0,1,1.15-3.15,10,10,0,0,1,3.43-2.11,21.91,21.91,0,0,0,2.11-1,3.08,3.08,0,0,0,1.14-1.05,3.19,3.19,0,0,0,.36-1.64v-1a1.91,1.91,0,0,0-.3-1.16,1.67,1.67,0,0,0-.76-.58,2.91,2.91,0,0,0-1.06-.18,1.77,1.77,0,0,0-1.75.8,5.83,5.83,0,0,0-.42,2.57v1.68h-3.41v-2a7.86,7.86,0,0,1,.4-2.63,3.24,3.24,0,0,1,1.6-1.81,7.68,7.68,0,0,1,3.58-.66,11,11,0,0,1,3.71.48A3,3,0,0,1,143,124a5.68,5.68,0,0,1,.48,2.5v15.82h-3.77v-2.29a3.36,3.36,0,0,1-1.59,1.93A5,5,0,0,1,135.49,142.66Zm1.56-2.52a2.08,2.08,0,0,0,1.95-1,5.38,5.38,0,0,0,.58-2.75v-5.58a2.45,2.45,0,0,1-1,.88c-.48.27-1,.55-1.4.85a5.59,5.59,0,0,0-1.53,1.26,2.87,2.87,0,0,0-.52,1.83v1.89a4.08,4.08,0,0,0,.26,1.66,1.32,1.32,0,0,0,.72.76A2.59,2.59,0,0,0,137.05,140.14Z"/><path d="M147,142.34V122.47h3.17l.36,2.29a3.4,3.4,0,0,1,1.49-1.91,4.46,4.46,0,0,1,2.37-.66,5.25,5.25,0,0,1,2.95.68,3.26,3.26,0,0,1,1.31,1.87,10.55,10.55,0,0,1,.32,2.71v14.89H155.2V127.73c0-.38,0-.74,0-1.08a2.65,2.65,0,0,0-.24-.93,1.46,1.46,0,0,0-.64-.64,2.77,2.77,0,0,0-1.29-.24,2.34,2.34,0,0,0-1.14.26,2,2,0,0,0-.7.6,3.11,3.11,0,0,0-.36.66v16Z"/><path d="M161.26,142.34l4.62-23.72h5.38l4.54,23.72h-4.26l-1-4.81h-4.34l-.88,4.81Zm5.06-6.78h4.22l-2.09-13.21Z"/><path d="M178.85,142.34v-16.9H177.6v-2.21h1.25v-2.09a5.64,5.64,0,0,1,.34-2.12,3.1,3.1,0,0,1,.9-1.29,3.45,3.45,0,0,1,1.31-.62,6.49,6.49,0,0,1,1.54-.18c.49,0,1,0,1.49,0s1,.06,1.38.1.71.06.87.06V119c-1.05-.11-1.88-.16-2.49-.16a1.23,1.23,0,0,0-1.25.76,4.07,4.07,0,0,0-.32,1.56v2h4.06v2.21h-4.06v16.9Z"/><path d="M189,142.34V122.47h3.21l.32,2.29a3,3,0,0,1,1.24-1.51,6.05,6.05,0,0,1,1.73-.7,4.54,4.54,0,0,1,2.53-.16v2.89a3.81,3.81,0,0,0-.6-.1,5.52,5.52,0,0,0-1.09,0,2.53,2.53,0,0,0-1,.28,3.29,3.29,0,0,0-1.85,1.14,3.47,3.47,0,0,0-.68,2.19v13.57Z"/><path d="M202.17,120.22a1.94,1.94,0,0,1-1.4-.58,2,2,0,0,1-.64-1.39,1.9,1.9,0,0,1,.6-1.42,2.09,2.09,0,0,1,2.89,0,1.9,1.9,0,0,1,.6,1.42,1.72,1.72,0,0,1-.58,1.39A2.07,2.07,0,0,1,202.17,120.22Zm-1.88,22.12V122.47h3.77v19.87Z"/><path d="M213.62,142.66a10.92,10.92,0,0,1-3.4-.44,3.33,3.33,0,0,1-2-1.76,9.16,9.16,0,0,1-.67-3.94v-9.15c0-2,.49-3.39,1.45-4.14a7.3,7.3,0,0,1,4.5-1.12,7.52,7.52,0,0,1,4.49,1.08c1,.73,1.45,2,1.45,3.94v2.77h-3.77V127a3.43,3.43,0,0,0-.45-2,2,2,0,0,0-1.72-.6,2.06,2.06,0,0,0-1.71.6,3.34,3.34,0,0,0-.46,2v10.72a3.49,3.49,0,0,0,.46,2.08,2.13,2.13,0,0,0,1.79.61,1.94,1.94,0,0,0,1.64-.59,3.57,3.57,0,0,0,.45-2.1v-3.14h3.77v2a9.2,9.2,0,0,1-.66,3.92,3.37,3.37,0,0,1-2,1.78A9.87,9.87,0,0,1,213.62,142.66Z"/><path d="M226.26,142.66a6.24,6.24,0,0,1-1.9-.28,2.85,2.85,0,0,1-1.53-1.18,5,5,0,0,1-.62-2.79V136a4.35,4.35,0,0,1,1.14-3.15,10,10,0,0,1,3.44-2.11,21.57,21.57,0,0,0,2.1-1,3,3,0,0,0,1.15-1.05,3.19,3.19,0,0,0,.36-1.64v-1a1.91,1.91,0,0,0-.3-1.16,1.7,1.7,0,0,0-.77-.58,2.87,2.87,0,0,0-1.06-.18,1.79,1.79,0,0,0-1.75.8,5.83,5.83,0,0,0-.42,2.57v1.68h-3.41v-2a7.86,7.86,0,0,1,.4-2.63,3.25,3.25,0,0,1,1.61-1.81,7.61,7.61,0,0,1,3.57-.66,11,11,0,0,1,3.71.48,3,3,0,0,1,1.75,1.47,5.68,5.68,0,0,1,.48,2.5v15.82h-3.77v-2.29a3.36,3.36,0,0,1-1.59,1.93A5,5,0,0,1,226.26,142.66Zm1.57-2.52a2.08,2.08,0,0,0,1.95-1,5.49,5.49,0,0,0,.58-2.75v-5.58a2.52,2.52,0,0,1-1,.88c-.49.27-1,.55-1.41.85a5.59,5.59,0,0,0-1.53,1.26,2.93,2.93,0,0,0-.52,1.83v1.89a4.26,4.26,0,0,0,.26,1.66,1.36,1.36,0,0,0,.73.76A2.54,2.54,0,0,0,227.83,140.14Z"/><path d="M237.79,142.34V122.47H241l.36,2.29a3.38,3.38,0,0,1,1.48-1.91,4.51,4.51,0,0,1,2.37-.66,5.23,5.23,0,0,1,3,.68,3.26,3.26,0,0,1,1.31,1.87,10.55,10.55,0,0,1,.32,2.71v14.89H246V127.73c0-.38,0-.74,0-1.08a2.65,2.65,0,0,0-.24-.93,1.49,1.49,0,0,0-.65-.64,2.72,2.72,0,0,0-1.28-.24,2.36,2.36,0,0,0-1.15.26,2.09,2.09,0,0,0-.7.6,3.11,3.11,0,0,0-.36.66v16Z"/><text class="cls-2" transform="translate(114.36 162.23)">SPACE INDUSTRY</text><circle class="cls-3" cx="69.85" cy="144" r="34.25"/><path class="cls-4" d="M65.55,148.65a.5.5,0,0,1-.49-.4.51.51,0,0,1,.39-.6,4.28,4.28,0,0,0-.92-8.46,4.25,4.25,0,0,0-3.05,1.27.5.5,0,1,1-.71-.7,5.28,5.28,0,1,1,4.89,8.87Z"/><path class="cls-4" d="M65.67,151.25a.5.5,0,0,1-.08-1,6.87,6.87,0,1,0-7.16-9.94.5.5,0,0,1-.89-.47,7.87,7.87,0,1,1,8.2,11.4Z"/><path class="cls-4" d="M65.71,153.79a.51.51,0,0,1-.5-.44.52.52,0,0,1,.44-.56,9.39,9.39,0,1,0-10-12.37.5.5,0,1,1-.95-.33,10.39,10.39,0,1,1,11.07,13.7Z"/><path class="cls-4" d="M65.76,156.41a.49.49,0,0,1-.49-.45.5.5,0,0,1,.45-.55,12,12,0,1,0-12.83-14.87.5.5,0,1,1-1-.24,13,13,0,1,1,13.89,16.11Z"/><path class="cls-4" d="M64.53,128a15.43,15.43,0,0,0-13.94,8.68.5.5,0,1,0,.9.44,14.52,14.52,0,0,1,27.56,6.4,14.62,14.62,0,0,1-12.72,14.41.48.48,0,0,0-.41.6v0a.47.47,0,0,0,.52.35A15.52,15.52,0,0,0,64.53,128Z"/><path class="cls-4" d="M79,153.46a.5.5,0,0,0-.7.1,17,17,0,0,1-11.25,6.8.5.5,0,0,0-.41.64h0a.48.48,0,0,0,.54.35,18.07,18.07,0,0,0,11.93-7.2A.49.49,0,0,0,79,153.46Z"/><path class="cls-4" d="M81.92,146.61h-.08a.51.51,0,0,1-.42-.57,17.3,17.3,0,0,0-.58-7.66.5.5,0,0,1,.33-.63.51.51,0,0,1,.63.33,18.15,18.15,0,0,1,.81,5.39,17.47,17.47,0,0,1-.2,2.71A.5.5,0,0,1,81.92,146.61Z"/><path class="cls-4" d="M50.13,133.87a.42.42,0,0,1-.28-.1.49.49,0,0,1-.13-.69,18.14,18.14,0,0,1,14.81-7.7,19.41,19.41,0,0,1,2.16.13.51.51,0,0,1,.44.56.5.5,0,0,1-.56.44,17.32,17.32,0,0,0-2-.12,17.13,17.13,0,0,0-14,7.26A.49.49,0,0,1,50.13,133.87Z"/><path class="cls-4" d="M69.93,163.41a.5.5,0,0,1-.13-1,19.5,19.5,0,0,0,6.32-3.06.5.5,0,0,1,.7.1.5.5,0,0,1-.11.71,20.66,20.66,0,0,1-6.64,3.22Z"/><path class="cls-4" d="M84.56,141.63a.51.51,0,0,1-.5-.44,20.76,20.76,0,0,0-.65-3.23.49.49,0,0,1,.34-.62.5.5,0,0,1,.62.34,21.44,21.44,0,0,1,.69,3.39.51.51,0,0,1-.44.56Z"/><path class="cls-4" d="M49.32,130.73a.5.5,0,0,1-.33-.12.51.51,0,0,1-.05-.71,20.62,20.62,0,0,1,13.29-7,.5.5,0,0,1,.11,1,19.63,19.63,0,0,0-12.65,6.63A.45.45,0,0,1,49.32,130.73Z"/><path class="cls-4" d="M62.63,161.4a.46.46,0,0,0-.69-.29c-4.25,2.64-7.51,3.61-8.59,2.54-1.54-1.54,1-7.82,8.47-16.62a.47.47,0,0,0-.06-.65l0,0a.48.48,0,0,0-.68,0c-6.23,7.34-11,15.39-8.41,18a2.79,2.79,0,0,0,2,.71c2.31,0,5.51-1.69,7.78-3.09a.46.46,0,0,0,.2-.5Z"/><path class="cls-4" d="M89.45,127.45c.9.9.57,3.78-2.88,9.19a.5.5,0,0,0,0,.43h0a.5.5,0,0,0,.89.11c2.13-3.35,4.78-8.43,2.75-10.45-1.82-1.82-6,.11-9.28,2.06-1.29.77-2.64,1.67-4,2.69a.5.5,0,0,0-.09.73h0a.51.51,0,0,0,.68.08C83.49,127.9,88.12,126.12,89.45,127.45Z"/><path class="cls-4" d="M67.37,143.52a2.85,2.85,0,0,1-2.84,2.85,2.83,2.83,0,0,1-2.85-2.84,2.85,2.85,0,0,1,2.84-2.85,2.8,2.8,0,0,1,1.81.65l0,0a2.42,2.42,0,0,1,.32.32A2.79,2.79,0,0,1,67.37,143.52Z"/><path class="cls-4" d="M86.68,151.66a5.57,5.57,0,0,1-2.85,2.85,4.32,4.32,0,0,1,2.85,2.85,4.68,4.68,0,0,1,2.85-2.85A5,5,0,0,1,86.68,151.66Z"/><path class="cls-4" d="M65.55,148.65a.5.5,0,0,1-.49-.4.51.51,0,0,1,.39-.6,4.28,4.28,0,0,0-.92-8.46,4.25,4.25,0,0,0-3.05,1.27.5.5,0,1,1-.71-.7,5.28,5.28,0,1,1,4.89,8.87Z"/><path class="cls-4" d="M65.67,151.25a.5.5,0,0,1-.08-1,6.87,6.87,0,1,0-7.16-9.94.5.5,0,0,1-.89-.47,7.87,7.87,0,1,1,8.2,11.4Z"/><path class="cls-4" d="M65.71,153.79a.51.51,0,0,1-.5-.44.52.52,0,0,1,.44-.56,9.39,9.39,0,1,0-10-12.37.5.5,0,1,1-.95-.33,10.39,10.39,0,1,1,11.07,13.7Z"/><path class="cls-4" d="M65.76,156.41a.49.49,0,0,1-.49-.45.5.5,0,0,1,.45-.55,12,12,0,1,0-12.83-14.87.5.5,0,1,1-1-.24,13,13,0,1,1,13.89,16.11Z"/><path class="cls-4" d="M64.53,128a15.43,15.43,0,0,0-13.94,8.68.5.5,0,1,0,.9.44,14.52,14.52,0,0,1,27.56,6.4,14.62,14.62,0,0,1-12.72,14.41.48.48,0,0,0-.41.6v0a.47.47,0,0,0,.52.35A15.52,15.52,0,0,0,64.53,128Z"/><path class="cls-4" d="M79,153.46a.5.5,0,0,0-.7.1,17,17,0,0,1-11.25,6.8.5.5,0,0,0-.41.64h0a.48.48,0,0,0,.54.35,18.07,18.07,0,0,0,11.93-7.2A.49.49,0,0,0,79,153.46Z"/><path class="cls-4" d="M81.92,146.61h-.08a.51.51,0,0,1-.42-.57,17.3,17.3,0,0,0-.58-7.66.5.5,0,0,1,.33-.63.51.51,0,0,1,.63.33,18.15,18.15,0,0,1,.81,5.39,17.47,17.47,0,0,1-.2,2.71A.5.5,0,0,1,81.92,146.61Z"/><path class="cls-4" d="M50.13,133.87a.42.42,0,0,1-.28-.1.49.49,0,0,1-.13-.69,18.14,18.14,0,0,1,14.81-7.7,19.41,19.41,0,0,1,2.16.13.51.51,0,0,1,.44.56.5.5,0,0,1-.56.44,17.32,17.32,0,0,0-2-.12,17.13,17.13,0,0,0-14,7.26A.49.49,0,0,1,50.13,133.87Z"/><path class="cls-4" d="M69.93,163.41a.5.5,0,0,1-.13-1,19.5,19.5,0,0,0,6.32-3.06.5.5,0,0,1,.7.1.5.5,0,0,1-.11.71,20.66,20.66,0,0,1-6.64,3.22Z"/><path class="cls-4" d="M84.56,141.63a.51.51,0,0,1-.5-.44,20.76,20.76,0,0,0-.65-3.23.49.49,0,0,1,.34-.62.5.5,0,0,1,.62.34,21.44,21.44,0,0,1,.69,3.39.51.51,0,0,1-.44.56Z"/><path class="cls-4" d="M49.32,130.73a.5.5,0,0,1-.33-.12.51.51,0,0,1-.05-.71,20.62,20.62,0,0,1,13.29-7,.5.5,0,0,1,.11,1,19.63,19.63,0,0,0-12.65,6.63A.45.45,0,0,1,49.32,130.73Z"/><path class="cls-5" d="M62.63,161.4a.46.46,0,0,0-.69-.29c-4.25,2.64-7.51,3.61-8.59,2.54-1.54-1.54,1-7.82,8.47-16.62a.47.47,0,0,0-.06-.65l0,0a.48.48,0,0,0-.68,0c-6.23,7.34-11,15.39-8.41,18a2.79,2.79,0,0,0,2,.71c2.31,0,5.51-1.69,7.78-3.09a.46.46,0,0,0,.2-.5Z"/><path class="cls-5" d="M89.45,127.45c.9.9.57,3.78-2.88,9.19a.5.5,0,0,0,0,.43h0a.5.5,0,0,0,.89.11c2.13-3.35,4.78-8.43,2.75-10.45-1.82-1.82-6,.11-9.28,2.06-1.29.77-2.64,1.67-4,2.69a.5.5,0,0,0-.09.73h0a.51.51,0,0,0,.68.08C83.49,127.9,88.12,126.12,89.45,127.45Z"/><path class="cls-5" d="M67.37,143.52a2.85,2.85,0,0,1-2.84,2.85,2.83,2.83,0,0,1-2.85-2.84,2.85,2.85,0,0,1,2.84-2.85,2.8,2.8,0,0,1,1.81.65l0,0a2.42,2.42,0,0,1,.32.32A2.79,2.79,0,0,1,67.37,143.52Z"/><path class="cls-5" d="M86.68,151.66a5.57,5.57,0,0,1-2.85,2.85,4.32,4.32,0,0,1,2.85,2.85,4.68,4.68,0,0,1,2.85-2.85A5,5,0,0,1,86.68,151.66Z"/></svg>