<svg id="Layer_1" data-name="Layer 1" xmlns="http://www.w3.org/2000/svg" viewBox="0 0 288 288"><defs><style>.cls-1,.cls-2{fill:#fff;}.cls-2{font-size:16.06px;font-family:Poppins-SemiBold, Poppins;font-weight:600;letter-spacing:0.01em;}</style></defs><title>white-logo-wide-</title><path class="cls-1" d="M116.58,147.36V123.63h8a5.24,5.24,0,0,1,3.45,1,3.63,3.63,0,0,1,1.21,3v4.21a10.26,10.26,0,0,1-.38,2.84,4,4,0,0,1-1.45,2.1,5,5,0,0,1-3.07.81h-3.78v9.79Zm4-12H123a2,2,0,0,0,1.81-1,5.91,5.91,0,0,0,.6-3.07v-2.13a5.17,5.17,0,0,0-.52-2.69,1.64,1.64,0,0,0-1.44-.8h-2.9Z"/><path class="cls-1" d="M135.89,147.68a6.35,6.35,0,0,1-1.91-.28,2.88,2.88,0,0,1-1.52-1.18,4.93,4.93,0,0,1-.62-2.79v-2.37a4.35,4.35,0,0,1,1.14-3.15,10,10,0,0,1,3.43-2.11,23.24,23.24,0,0,0,2.11-1,2.67,2.67,0,0,0,1.51-2.69v-1a1.91,1.91,0,0,0-.3-1.16,1.7,1.7,0,0,0-.77-.58,2.68,2.68,0,0,0-1.06-.19,1.79,1.79,0,0,0-1.75.81,5.83,5.83,0,0,0-.42,2.57v1.68h-3.41v-2a7.86,7.86,0,0,1,.4-2.63,3.25,3.25,0,0,1,1.61-1.81,7.61,7.61,0,0,1,3.57-.66,11,11,0,0,1,3.71.48,3,3,0,0,1,1.75,1.46,5.76,5.76,0,0,1,.48,2.51v15.82h-3.77v-2.29a3.36,3.36,0,0,1-1.59,1.93A5,5,0,0,1,135.89,147.68Zm1.57-2.53a2.05,2.05,0,0,0,1.94-1,5.38,5.38,0,0,0,.59-2.75v-5.58a2.56,2.56,0,0,1-1,.88c-.48.27-.95.55-1.4.85a5.59,5.59,0,0,0-1.53,1.26,2.87,2.87,0,0,0-.52,1.83v1.88a4.28,4.28,0,0,0,.26,1.67,1.35,1.35,0,0,0,.72.76A2.62,2.62,0,0,0,137.46,145.15Z"/><path class="cls-1" d="M147.41,147.36V127.49h3.18l.36,2.29a3.34,3.34,0,0,1,1.48-1.91,4.48,4.48,0,0,1,2.37-.66,5.23,5.23,0,0,1,2.95.68,3.26,3.26,0,0,1,1.31,1.87,10.55,10.55,0,0,1,.32,2.71v14.89H155.6V132.75c0-.38,0-.74,0-1.09a2.28,2.28,0,0,0-.24-.92,1.46,1.46,0,0,0-.64-.64,2.72,2.72,0,0,0-1.28-.24,2.25,2.25,0,0,0-1.15.26,2,2,0,0,0-.7.6,3.11,3.11,0,0,0-.36.66v16Z"/><path class="cls-1" d="M161.67,147.36l4.61-23.73h5.38l4.54,23.73h-4.26l-1-4.82h-4.34l-.88,4.82Zm5.05-6.78h4.22l-2.09-13.21Z"/><path class="cls-1" d="M179.25,147.36v-16.9H178v-2.21h1.24v-2.09a5.64,5.64,0,0,1,.34-2.12,3,3,0,0,1,.91-1.29,3.34,3.34,0,0,1,1.3-.62,6.58,6.58,0,0,1,1.55-.18c.48,0,1,0,1.48,0l1.39.1c.41,0,.7.06.86.06V124a24.66,24.66,0,0,0-2.49-.16,1.21,1.21,0,0,0-1.24.76,3.89,3.89,0,0,0-.32,1.56v2h4.05v2.21H183v16.9Z"/><path class="cls-1" d="M189.41,147.36V127.49h3.21l.32,2.29a3,3,0,0,1,1.25-1.51,5.88,5.88,0,0,1,1.72-.7,4.46,4.46,0,0,1,2.53-.16v2.89a3.81,3.81,0,0,0-.6-.1,5.44,5.44,0,0,0-1.08,0,2.58,2.58,0,0,0-1,.28,3.27,3.27,0,0,0-1.84,1.14,3.41,3.41,0,0,0-.69,2.19v13.57Z"/><path class="cls-1" d="M202.58,125.24a2,2,0,0,1-1.41-.58,2,2,0,0,1-.64-1.39,1.9,1.9,0,0,1,.6-1.42,2,2,0,0,1,1.45-.58,2,2,0,0,1,1.44.58,1.91,1.91,0,0,1,.61,1.42,1.73,1.73,0,0,1-.59,1.39A2,2,0,0,1,202.58,125.24Zm-1.89,22.12V127.49h3.77v19.87Z"/><path class="cls-1" d="M214,147.68a10.81,10.81,0,0,1-3.39-.44,3.31,3.31,0,0,1-2-1.77,9.1,9.1,0,0,1-.66-3.93v-9.15q0-3,1.44-4.14a7.32,7.32,0,0,1,4.5-1.12,7.57,7.57,0,0,1,4.5,1.08c1,.72,1.44,2,1.44,3.94v2.77h-3.77V132a3.52,3.52,0,0,0-.44-2,2.77,2.77,0,0,0-3.44,0,3.34,3.34,0,0,0-.46,2v10.72a3.49,3.49,0,0,0,.46,2.08,2.17,2.17,0,0,0,1.79.6,2,2,0,0,0,1.65-.58,3.66,3.66,0,0,0,.44-2.1v-3.14h3.77v2a9.2,9.2,0,0,1-.66,3.92,3.34,3.34,0,0,1-2,1.78A9.87,9.87,0,0,1,214,147.68Z"/><path class="cls-1" d="M226.67,147.68a6.3,6.3,0,0,1-1.91-.28,2.94,2.94,0,0,1-1.53-1.18,5,5,0,0,1-.62-2.79v-2.37a4.35,4.35,0,0,1,1.14-3.15,10,10,0,0,1,3.44-2.11c.88-.38,1.58-.71,2.11-1a3.08,3.08,0,0,0,1.14-1.05,3.19,3.19,0,0,0,.36-1.64v-1a1.91,1.91,0,0,0-.3-1.16,1.73,1.73,0,0,0-.76-.58,2.73,2.73,0,0,0-1.07-.19,1.77,1.77,0,0,0-1.74.81,5.81,5.81,0,0,0-.43,2.57v1.68h-3.41v-2a8.12,8.12,0,0,1,.4-2.63,3.29,3.29,0,0,1,1.61-1.81,7.61,7.61,0,0,1,3.57-.66,11,11,0,0,1,3.72.48,3,3,0,0,1,1.74,1.46,5.61,5.61,0,0,1,.49,2.51v15.82h-3.78v-2.29a3.38,3.38,0,0,1-1.58,1.93A5.06,5.06,0,0,1,226.67,147.68Zm1.56-2.53a2.08,2.08,0,0,0,2-1,5.38,5.38,0,0,0,.58-2.75v-5.58a2.52,2.52,0,0,1-1,.88c-.48.27-.95.55-1.41.85a5.39,5.39,0,0,0-1.52,1.26,2.87,2.87,0,0,0-.53,1.83v1.88a4.08,4.08,0,0,0,.27,1.67,1.32,1.32,0,0,0,.72.76A2.57,2.57,0,0,0,228.23,145.15Z"/><path class="cls-1" d="M238.19,147.36V127.49h3.17l.36,2.29a3.36,3.36,0,0,1,1.49-1.91,4.46,4.46,0,0,1,2.37-.66,5.25,5.25,0,0,1,2.95.68,3.25,3.25,0,0,1,1.3,1.87,10.13,10.13,0,0,1,.32,2.71v14.89h-3.77V132.75c0-.38,0-.74,0-1.09a2.65,2.65,0,0,0-.24-.92,1.52,1.52,0,0,0-.64-.64,2.79,2.79,0,0,0-1.29-.24,2.19,2.19,0,0,0-1.14.26,2,2,0,0,0-.71.6,3.11,3.11,0,0,0-.36.66v16Z"/><text class="cls-2" transform="translate(114.76 167.25)">SPACE INDUSTRY</text><circle class="cls-1" cx="70.25" cy="144" r="34.25"/><path d="M66,148.65a.49.49,0,0,1-.49-.4.5.5,0,0,1,.38-.6,4.28,4.28,0,1,0-4-7.19.49.49,0,0,1-.7,0,.5.5,0,0,1,0-.71,5.28,5.28,0,1,1,4.89,8.87Z"/><path d="M66.07,151.25a.5.5,0,0,1-.08-1,6.87,6.87,0,1,0-7.16-9.94.5.5,0,0,1-.89-.47,7.87,7.87,0,1,1,8.2,11.4Z"/><path d="M66.11,153.79a.49.49,0,0,1-.49-.44.5.5,0,0,1,.44-.56,9.39,9.39,0,1,0-10-12.37.5.5,0,1,1-.95-.33,10.39,10.39,0,1,1,11.07,13.7Z"/><path d="M66.17,156.41a.5.5,0,0,1,0-1A12,12,0,1,0,53.3,140.54a.51.51,0,0,1-.61.37.5.5,0,0,1-.37-.61,13,13,0,1,1,13.9,16.11Z"/><path d="M64.93,128A15.46,15.46,0,0,0,51,136.63a.5.5,0,1,0,.9.44,14.52,14.52,0,0,1,27.56,6.4,14.61,14.61,0,0,1-12.72,14.41.48.48,0,0,0-.41.6v0a.49.49,0,0,0,.52.35A15.52,15.52,0,0,0,64.93,128Z"/><path d="M79.42,153.46a.5.5,0,0,0-.7.1,17.06,17.06,0,0,1-11.26,6.8.5.5,0,0,0-.41.64h0a.49.49,0,0,0,.55.35,18.08,18.08,0,0,0,11.92-7.2A.5.5,0,0,0,79.42,153.46Z"/><path d="M82.32,146.61h-.08a.51.51,0,0,1-.42-.57,17.3,17.3,0,0,0-.58-7.66.5.5,0,1,1,1-.3,18.15,18.15,0,0,1,.82,5.39,17.48,17.48,0,0,1-.21,2.71A.5.5,0,0,1,82.32,146.61Z"/><path d="M50.54,133.87a.46.46,0,0,1-.29-.1.49.49,0,0,1-.12-.69,18.1,18.1,0,0,1,14.8-7.7,19.41,19.41,0,0,1,2.16.13.5.5,0,0,1,.44.56.5.5,0,0,1-.55.44,17.62,17.62,0,0,0-2-.12,17.1,17.1,0,0,0-14,7.26A.52.52,0,0,1,50.54,133.87Z"/><path d="M70.33,163.41a.5.5,0,0,1-.48-.37.51.51,0,0,1,.35-.62,19.4,19.4,0,0,0,6.32-3.06.51.51,0,0,1,.71.1.52.52,0,0,1-.11.71,20.81,20.81,0,0,1-6.65,3.22Z"/><path d="M85,141.63a.51.51,0,0,1-.5-.44,18.67,18.67,0,0,0-.65-3.23.5.5,0,0,1,.34-.62.49.49,0,0,1,.62.34,19.41,19.41,0,0,1,.69,3.39.51.51,0,0,1-.44.56Z"/><path d="M49.72,130.73a.5.5,0,0,1-.33-.12.51.51,0,0,1,0-.71,20.62,20.62,0,0,1,13.29-7,.5.5,0,0,1,.11,1,19.58,19.58,0,0,0-12.64,6.63A.48.48,0,0,1,49.72,130.73Z"/><path d="M63,161.4a.46.46,0,0,0-.69-.29c-4.25,2.64-7.51,3.61-8.59,2.54-1.54-1.54,1-7.82,8.47-16.62a.45.45,0,0,0-.06-.65l0,0a.46.46,0,0,0-.67,0c-6.24,7.34-11,15.39-8.41,18a2.78,2.78,0,0,0,2,.71c2.31,0,5.51-1.69,7.78-3.09a.46.46,0,0,0,.2-.5Z"/><path d="M89.85,127.45c.9.9.58,3.78-2.88,9.19a.5.5,0,0,0,0,.43h0a.5.5,0,0,0,.89.11c2.14-3.35,4.78-8.43,2.75-10.45-1.81-1.82-6,.11-9.28,2.06-1.29.77-2.64,1.67-4,2.69a.51.51,0,0,0-.09.73h0a.51.51,0,0,0,.68.08C83.89,127.9,88.52,126.12,89.85,127.45Z"/><path d="M67.77,143.52a2.85,2.85,0,0,1-2.84,2.85,2.79,2.79,0,0,1-1.68-.55,3,3,0,0,1-.7-.72,2.9,2.9,0,0,1-.47-1.57,2.85,2.85,0,0,1,2.84-2.85,2.8,2.8,0,0,1,1.81.65l0,0a1.94,1.94,0,0,1,.32.32A2.79,2.79,0,0,1,67.77,143.52Z"/><path d="M87.08,151.66a5.52,5.52,0,0,1-2.84,2.85,4.33,4.33,0,0,1,2.84,2.85,4.68,4.68,0,0,1,2.85-2.85A5.05,5.05,0,0,1,87.08,151.66Z"/><path d="M66,148.65a.49.49,0,0,1-.49-.4.5.5,0,0,1,.38-.6,4.28,4.28,0,1,0-4-7.19.49.49,0,0,1-.7,0,.5.5,0,0,1,0-.71,5.28,5.28,0,1,1,4.89,8.87Z"/><path d="M66.07,151.25a.5.5,0,0,1-.08-1,6.87,6.87,0,1,0-7.16-9.94.5.5,0,0,1-.89-.47,7.87,7.87,0,1,1,8.2,11.4Z"/><path d="M66.11,153.79a.49.49,0,0,1-.49-.44.5.5,0,0,1,.44-.56,9.39,9.39,0,1,0-10-12.37.5.5,0,1,1-.95-.33,10.39,10.39,0,1,1,11.07,13.7Z"/><path d="M66.17,156.41a.5.5,0,0,1,0-1A12,12,0,1,0,53.3,140.54a.51.51,0,0,1-.61.37.5.5,0,0,1-.37-.61,13,13,0,1,1,13.9,16.11Z"/><path d="M64.93,128A15.46,15.46,0,0,0,51,136.63a.5.5,0,1,0,.9.44,14.52,14.52,0,0,1,27.56,6.4,14.61,14.61,0,0,1-12.72,14.41.48.48,0,0,0-.41.6v0a.49.49,0,0,0,.52.35A15.52,15.52,0,0,0,64.93,128Z"/><path d="M79.42,153.46a.5.5,0,0,0-.7.1,17.06,17.06,0,0,1-11.26,6.8.5.5,0,0,0-.41.64h0a.49.49,0,0,0,.55.35,18.08,18.08,0,0,0,11.92-7.2A.5.5,0,0,0,79.42,153.46Z"/><path d="M82.32,146.61h-.08a.51.51,0,0,1-.42-.57,17.3,17.3,0,0,0-.58-7.66.5.5,0,1,1,1-.3,18.15,18.15,0,0,1,.82,5.39,17.48,17.48,0,0,1-.21,2.71A.5.5,0,0,1,82.32,146.61Z"/><path d="M50.54,133.87a.46.46,0,0,1-.29-.1.49.49,0,0,1-.12-.69,18.1,18.1,0,0,1,14.8-7.7,19.41,19.41,0,0,1,2.16.13.5.5,0,0,1,.44.56.5.5,0,0,1-.55.44,17.62,17.62,0,0,0-2-.12,17.1,17.1,0,0,0-14,7.26A.52.52,0,0,1,50.54,133.87Z"/><path d="M70.33,163.41a.5.5,0,0,1-.48-.37.51.51,0,0,1,.35-.62,19.4,19.4,0,0,0,6.32-3.06.51.51,0,0,1,.71.1.52.52,0,0,1-.11.71,20.81,20.81,0,0,1-6.65,3.22Z"/><path d="M85,141.63a.51.51,0,0,1-.5-.44,18.67,18.67,0,0,0-.65-3.23.5.5,0,0,1,.34-.62.49.49,0,0,1,.62.34,19.41,19.41,0,0,1,.69,3.39.51.51,0,0,1-.44.56Z"/><path d="M49.72,130.73a.5.5,0,0,1-.33-.12.51.51,0,0,1,0-.71,20.62,20.62,0,0,1,13.29-7,.5.5,0,0,1,.11,1,19.58,19.58,0,0,0-12.64,6.63A.48.48,0,0,1,49.72,130.73Z"/><path d="M63,161.4a.46.46,0,0,0-.69-.29c-4.25,2.64-7.51,3.61-8.59,2.54-1.54-1.54,1-7.82,8.47-16.62a.45.45,0,0,0-.06-.65l0,0a.46.46,0,0,0-.67,0c-6.24,7.34-11,15.39-8.41,18a2.78,2.78,0,0,0,2,.71c2.31,0,5.51-1.69,7.78-3.09a.46.46,0,0,0,.2-.5Z"/><path d="M89.85,127.45c.9.9.58,3.78-2.88,9.19a.5.5,0,0,0,0,.43h0a.5.5,0,0,0,.89.11c2.14-3.35,4.78-8.43,2.75-10.45-1.81-1.82-6,.11-9.28,2.06-1.29.77-2.64,1.67-4,2.69a.51.51,0,0,0-.09.73h0a.51.51,0,0,0,.68.08C83.89,127.9,88.52,126.12,89.85,127.45Z"/><path d="M67.77,143.52a2.85,2.85,0,0,1-2.84,2.85,2.79,2.79,0,0,1-1.68-.55,3,3,0,0,1-.7-.72,2.9,2.9,0,0,1-.47-1.57,2.85,2.85,0,0,1,2.84-2.85,2.8,2.8,0,0,1,1.81.65l0,0a1.94,1.94,0,0,1,.32.32A2.79,2.79,0,0,1,67.77,143.52Z"/><path d="M87.08,151.66a5.52,5.52,0,0,1-2.84,2.85,4.33,4.33,0,0,1,2.84,2.85,4.68,4.68,0,0,1,2.85-2.85A5.05,5.05,0,0,1,87.08,151.66Z"/></svg>