<svg xmlns="http://www.w3.org/2000/svg" id="Calque_2" data-name="Calque 2" viewBox="0 0 226.85 140.38"><defs><style>      .cls-1 {        fill: #00134d;        fill-rule: evenodd;      }      .cls-2 {        fill: none;        stroke: #fc5e61;        stroke-linecap: round;        stroke-linejoin: round;        stroke-width: 6.7px;      }    </style></defs><g id="Calque_1-2" data-name="Calque 1-2"><path class="cls-1" d="m139.98,6.81l28.73,51.98,40.85-25.54c8.7-5.64,19.54,2.61,16.88,12.41l-22.38,83.06v.02c-1.89,6.89-8.05,11.64-15.23,11.64h-117.34c-7.06,0-13.34-4.71-15.23-11.64v-.02l-22.39-83.05h0c-2.75-10.13,8.31-17.7,16.79-12.47l.04.03,40.73,25.56L120.24,6.8c4.27-7.81,15.47-7.81,19.73,0h0Zm-9.88,10.03l-30.34,54.73c-.89,1.62-2.42,2.8-4.21,3.26-1.8.46-3.69.16-5.26-.82l-41.91-26.3,20.88,77.48c.27.99,1.18,1.69,2.22,1.69h117.34c1.08,0,1.93-.66,2.21-1.68h0l20.89-77.5-42.1,26.31c-1.57.99-3.47,1.27-5.26.81s-3.31-1.64-4.21-3.26l-30.25-54.72h0Z"></path><line class="cls-2" x1="28.35" y1="28.35" x2="6.35" y2="12.35"></line><line class="cls-2" x1="35.35" y1="20.35" x2="28.35" y2="3.35"></line><line class="cls-2" x1="24.35" y1="37.35" x2="3.35" y2="35.35"></line></g></svg>