<svg xmlns="http://www.w3.org/2000/svg" id="Calque_2" data-name="Calque 2" viewBox="0 0 170.8 248.03"><defs><style>      .cls-1 {        stroke-width: 5px;      }      .cls-1, .cls-2, .cls-3 {        fill: #006;      }      .cls-1, .cls-3 {        stroke: #006;        stroke-linecap: round;        stroke-linejoin: round;      }      .cls-4 {        fill: #fc5e61;      }      .cls-3 {        stroke-width: 2px;      }    </style></defs><g id="Calque_1-2" data-name="Calque 1"><g><g><path class="cls-1" d="m130.63,53.08L56.42,10.24l-3.11-1.79-9.58-5.53-.05-.02-.03-.03c-.09-.04-.2-.08-.29-.1-.15-.07-.3-.13-.47-.17-.13-.03-.26-.05-.39-.06-.14-.02-.29-.04-.44-.04-.13,0-.27.03-.4.05-.14.02-.29.05-.44.09-.12.04-.24.09-.35.14-.11.04-.24.09-.35.14-.03.02-.05.05-.08.07-.03,0-.06.02-.08.04L3.93,26.99c-.09.07-.17.13-.25.21-.1.09-.21.17-.31.27-.34.42-.61.89-.77,1.41-.04.16-.06.32-.07.49,0,.09-.04.18-.04.28v141.46c0,1.14.61,2.19,1.59,2.77l123.33,71.2c.99.57,2.21.57,3.2,0,.99-.57,1.59-1.62,1.59-2.77v-20.44s0-166.03,0-166.03c0-1.14-.61-2.2-1.59-2.77ZM38.94,11.61v32.66c-.03.25-.03.5,0,.75-.28-.07-.55-.17-.8-.33l-26.34-15.21,27.15-17.87Zm86.89,225.18L8.89,169.28V35.2l26.04,15.04c.63.36,1.29.65,1.98.85.22.07.43.08.65.11.43.1.86.17,1.31.2.06,0,.11.02.17.02.31,0,.62-.05.92-.11.19-.03.39-.03.58-.08.54-.12,1.07-.33,1.56-.61,2.16-1.38,3.39-3.81,3.24-6.35V11.23l80.5,46.47v179.1Z"></path><g><path class="cls-2" d="m47.33,150.38l-10.76-6.21v-36.84c0-2.23,1.46-3.14,3.32-2.07l4.12,2.38c1.86,1.07,3.32,3.67,3.32,5.9v36.84Z"></path><path class="cls-2" d="m48.65,152.75l-13.28-7.67v-38.44c0-3.03,2.12-4.36,4.65-2.9l4.12,2.38c2.52,1.46,4.65,5.24,4.65,8.27v38.44s-.14-.08-.14-.08Zm-10.63-9.33l8.1,4.68v-35.25c0-1.28-.92-2.93-1.99-3.55l-4.12-2.38c-1.06-.61-1.99-.04-1.99,1.24v35.25Z"></path><path class="cls-4" d="m95.41,178.13l-10.76-6.21v-75.77c0-2.23,1.46-3.14,3.32-2.07l4.12,2.38c1.86,1.07,3.32,3.67,3.32,5.9v75.77Z"></path><path class="cls-4" d="m96.74,180.5l-13.29-7.67v-77.37c0-3.03,2.12-4.36,4.65-2.9l4.12,2.38c2.52,1.46,4.65,5.24,4.65,8.27v77.36s-.14-.08-.14-.08Zm-10.63-9.33l8.1,4.68v-74.17c0-1.28-.93-2.93-1.99-3.55l-4.12-2.38c-1.06-.61-1.99-.04-1.99,1.24v74.18Z"></path><path class="cls-2" d="m71.37,164.26l-10.76-6.21v-52.31c0-2.23,1.46-3.14,3.32-2.07l4.12,2.37c1.86,1.07,3.32,3.67,3.32,5.9v52.32Z"></path><path class="cls-2" d="m72.69,166.62l-13.28-7.67v-53.91c0-3.03,2.12-4.36,4.65-2.9l3.98,2.3c2.52,1.46,4.65,5.24,4.65,8.27v53.91Zm-10.62-9.32l8.1,4.68v-50.72c0-1.28-.93-2.93-1.99-3.55l-4.11-2.37c-1.06-.61-1.99-.04-1.99,1.24v50.72Z"></path></g><path class="cls-2" d="m104.84,185.18l-78.37-45.24c-.8-.46-1.33-1.4-1.33-2.36s.53-1.29,1.33-.83l78.37,45.24c.8.46,1.33,1.4,1.33,2.36s-.66,1.21-1.33.83Z"></path></g><path class="cls-3" d="m169,53.67h0S82.08,3.49,82.08,3.49c-.07-.03-.13-.05-.2-.07-.11-.06-.23-.09-.35-.11-.31-.07-.64,0-.91.14-.08.03-.14.06-.22.09l-8.15,5.38-9.35-5.43c-.09-.03-.16-.06-.25-.09-.09-.04-.19-.08-.29-.09-.11-.02-.22-.02-.33,0-.22,0-.43.04-.61.15-.08.03-.14.06-.21.09l-6.22,4.1,3.11,1.79,4.05-2.67,9.34,5.42c.06.03.12.07.19.09l75.73,43.71v182.78s-13.51-7.79-13.51-7.79v3.69s14.3,8.25,14.3,8.25c.49.28,1.1.28,1.59,0,.5-.28.81-.82.81-1.39v-8.3l16.78,9.68c.25.14.52.22.8.22.88,0,1.6-.72,1.6-1.6V55.05c0-.57-.3-1.1-.8-1.39Zm-18.39,175.86V55.05c0-.57-.3-1.1-.8-1.39L75.37,10.7l5.97-3.94,85.26,49.21v182.78s-15.99-9.23-15.99-9.23Z"></path></g></g></svg>