<svg xmlns="http://www.w3.org/2000/svg" id="Calque_2" data-name="Calque 2" viewBox="0 0 313.5 216.75"><defs><style>      .cls-1 {        fill: #00134d;      }      .cls-2 {        fill: #ea5e64;      }      .cls-3 {        stroke-linecap: round;        stroke-linejoin: round;        stroke-width: 11px;      }      .cls-3, .cls-4 {        fill: none;        stroke: #ea5e64;      }      .cls-4 {        stroke-dasharray: 0 0 3 5;        stroke-miterlimit: 10;        stroke-width: 3px;      }    </style></defs><g id="Calque_1-2" data-name="Calque 1"><g><g><path class="cls-1" d="m221.9,88.54c1.89,1.57,4.25,2.36,6.76,2.36,6.13,0,11.01-4.88,11.01-11.01s-4.88-11.01-11.01-11.01-11.01,4.88-11.01,11.01c0,1.26.16,2.36.63,3.46l-14.63,11.17c-1.89-1.26-4.09-2.05-6.45-2.05-6.13,0-11.01,4.88-11.01,11.01,0,1.41.31,2.67.63,3.77l-14.47,11.01c-1.73-1.41-4.09-2.2-6.6-2.2-2.05,0-3.93.63-5.66,1.57l-15.89-17.14c.79-1.41,1.1-3.15,1.1-4.88,0-6.13-4.88-11.01-11.01-11.01-5.03,0-9.12,3.31-10.54,7.86h-10.38c-1.41-4.56-5.5-7.86-10.54-7.86-6.13,0-11.01,4.88-11.01,11.01s4.88,11.01,11.01,11.01c5.03,0,9.12-3.31,10.54-7.86h10.38c1.41,4.56,5.5,7.86,10.54,7.86,2.05,0,3.93-.63,5.5-1.57l16.04,17.3c-.63,1.41-1.1,3.15-1.1,4.72,0,6.13,4.88,11.01,11.01,11.01s11.01-4.88,11.01-11.01c0-1.26-.16-2.52-.63-3.62l14.47-11.17c1.89,1.41,4.09,2.2,6.6,2.2,6.13,0,11.01-4.88,11.01-11.01,0-1.41-.31-2.67-.79-3.93l14.48-11Zm-119.05,11.8c-2.67,0-4.72-2.05-4.72-4.72s2.05-4.72,4.72-4.72,4.72,2.05,4.72,4.72-2.05,4.72-4.72,4.72Zm125.82-25.16c2.67,0,4.72,2.05,4.72,4.72s-2.05,4.72-4.72,4.72-4.72-2.05-4.72-4.72,2.05-4.72,4.72-4.72Zm-94.36,25.16c-2.67,0-4.72-2.05-4.72-4.72s2.05-4.72,4.72-4.72,4.72,2.05,4.72,4.72-2.05,4.72-4.72,4.72Zm31.45,31.45c-2.67,0-4.72-2.05-4.72-4.72s2.05-4.72,4.72-4.72,4.72,2.05,4.72,4.72-2.05,4.72-4.72,4.72Z"></path><path class="cls-1" d="m91.83,216.72h22.02v-100.65h-22.02v100.65Z"></path><path class="cls-1" d="m123.29,216.72h22.02v-100.65h-22.02v100.65Z"></path><path class="cls-1" d="m154.74,216.72h22.02v-69.2h-22.02v69.2Z"></path><path class="cls-1" d="m186.2,216.72h22.02v-92.79h-22.02v92.79Z"></path><path class="cls-1" d="m217.65,216.72h22.02v-116.38h-22.02v116.38Z"></path></g><circle class="cls-2" cx="197.06" cy="103.45" r="11.25"></circle><line class="cls-4" x1="197.24" y1="93.73" x2="197.24" y2="32.24"></line><line class="cls-3" x1="197.24" y1="5.5" x2="228.56" y2="5.5"></line><line class="cls-3" x1="197.24" y1="19.25" x2="308" y2="19.25"></line><path class="cls-2" d="m91.73,216.75h22.02v-100.65h-22.02v100.65Z"></path><line class="cls-3" x1="32.24" y1="123.9" x2="63.56" y2="123.9"></line><line class="cls-3" x1="5.5" y1="137.65" x2="63.56" y2="137.65"></line><line class="cls-4" x1="69.67" y1="130.5" x2="86.85" y2="130.5"></line></g></g></svg>