<svg width="20" height="21" viewBox="0 0 20 21" fill="none" xmlns="http://www.w3.org/2000/svg">
<g id="Phosphor/Duotone/HouseLine">
<path id="Vector" opacity="0.2" d="M16.248 9.52642V16.7499M16.248 9.52642L16.2481 9.52641L16.248 16.7499M16.248 9.52642L9.99762 3.84399L3.74805 9.5264V16.7499M16.248 9.52642L3.74805 16.7499M16.248 16.7499L12.4976 16.7494V12.3743V11.7493H11.8726H8.12259H7.49759V12.3743V16.7494L3.74805 16.7499M16.248 16.7499H3.74805" fill="#005CE8" stroke="#005CE8" stroke-width="1.25"/>
<path id="Vector_2" d="M16.873 17.375V9.52642C16.873 9.43934 16.8548 9.35322 16.8196 9.27358C16.7844 9.19395 16.7329 9.12255 16.6685 9.06397L10.418 3.38154C10.303 3.27694 10.1531 3.21899 9.9976 3.21899C9.84211 3.219 9.6922 3.27696 9.57716 3.38157L3.32759 9.06397C3.26316 9.12255 3.21169 9.19395 3.17646 9.27358C3.14124 9.35321 3.12305 9.43932 3.12305 9.5264V17.375" stroke="#005CE8" stroke-width="1.25" stroke-linecap="round" stroke-linejoin="round"/>
<path id="Vector_3" d="M1.24805 17.375H18.748" stroke="#005CE8" stroke-width="1.25" stroke-linecap="round" stroke-linejoin="round"/>
<path id="Vector_4" d="M11.873 17.3743V12.9993C11.873 12.8336 11.8072 12.6746 11.69 12.5574C11.5728 12.4402 11.4138 12.3743 11.248 12.3743H8.74805C8.58229 12.3743 8.42331 12.4402 8.3061 12.5574C8.18889 12.6746 8.12305 12.8336 8.12305 12.9993V17.3743" stroke="#005CE8" stroke-width="1.25" stroke-linecap="round" stroke-linejoin="round"/>
</g>
</svg>
