<svg width="20" height="21" viewBox="0 0 20 21" fill="none" xmlns="http://www.w3.org/2000/svg">
<g id="Outline/Status/Notification">
<path id="Icon" fill-rule="evenodd" clip-rule="evenodd" d="M10.8343 3.00001C10.8343 2.53977 10.4612 2.16667 10.001 2.16667C9.54073 2.16667 9.16763 2.53977 9.16763 3.00001V3.62501H8.70312C6.84889 3.62501 5.31423 5.06668 5.19848 6.91729L5.01431 9.86184C4.94409 10.9845 4.56719 12.0664 3.92464 12.9897C3.34407 13.8239 3.86092 14.976 4.87003 15.0971L7.7093 15.4378V16.3333C7.7093 17.599 8.73531 18.625 10.001 18.625C11.2666 18.625 12.2926 17.599 12.2926 16.3333V15.4378L15.1319 15.0971C16.141 14.976 16.6579 13.8239 16.0773 12.9897C15.4347 12.0664 15.0578 10.9845 14.9876 9.86184L14.8034 6.91729C14.6877 5.06668 13.153 3.62501 11.2988 3.62501H10.8343V3.00001ZM8.70312 4.87501C7.50895 4.87501 6.52059 5.80348 6.44604 6.99532L6.26187 9.93987C6.17738 11.2908 5.72383 12.5927 4.95063 13.7037C4.90866 13.764 4.94602 13.8473 5.01896 13.856L8.13367 14.2298C9.37408 14.3786 10.6278 14.3786 11.8683 14.2298L14.983 13.856C15.0559 13.8473 15.0933 13.764 15.0513 13.7037C14.2781 12.5927 13.8245 11.2908 13.74 9.93987L13.5559 6.99532C13.4813 5.80348 12.493 4.87501 11.2988 4.87501H8.70312ZM10.001 17.375C9.42567 17.375 8.9593 16.9086 8.9593 16.3333V15.7083H11.0426V16.3333C11.0426 16.9086 10.5763 17.375 10.001 17.375Z" fill="#4A5154"/>
<path id="Ellipse 1" d="M14.166 9.33333C15.8229 9.33333 17.166 7.99018 17.166 6.33333C17.166 4.67647 15.8229 3.33333 14.166 3.33333C12.5092 3.33333 11.166 4.67647 11.166 6.33333C11.166 7.99018 12.5092 9.33333 14.166 9.33333Z" fill="#E84646" stroke="white"/>
</g>
</svg>
