<svg width="20" height="21" viewBox="0 0 20 21" fill="none" xmlns="http://www.w3.org/2000/svg">
<g id="bx-plus-circle 2">
<path id="Vector" d="M10.834 6.33334H9.16732V9.66668H5.83398V11.3333H9.16732V14.6667H10.834V11.3333H14.1673V9.66668H10.834V6.33334Z" fill="#626C70"/>
<path id="Vector_2" d="M9.99935 2.16666C5.40435 2.16666 1.66602 5.90499 1.66602 10.5C1.66602 15.095 5.40435 18.8333 9.99935 18.8333C14.5943 18.8333 18.3327 15.095 18.3327 10.5C18.3327 5.90499 14.5943 2.16666 9.99935 2.16666ZM9.99935 17.1667C6.32352 17.1667 3.33268 14.1758 3.33268 10.5C3.33268 6.82416 6.32352 3.83332 9.99935 3.83332C13.6752 3.83332 16.666 6.82416 16.666 10.5C16.666 14.1758 13.6752 17.1667 9.99935 17.1667Z" fill="#626C70"/>
</g>
</svg>
