<svg width="20" height="21" viewBox="0 0 20 21" fill="none" xmlns="http://www.w3.org/2000/svg">
<g id="bx-cog 1">
<path id="Vector" d="M9.99935 13.8333C11.8377 13.8333 13.3327 12.3383 13.3327 10.5C13.3327 8.66166 11.8377 7.16666 9.99935 7.16666C8.16102 7.16666 6.66602 8.66166 6.66602 10.5C6.66602 12.3383 8.16102 13.8333 9.99935 13.8333ZM9.99935 8.83332C10.9027 8.83332 11.666 9.59666 11.666 10.5C11.666 11.4033 10.9027 12.1667 9.99935 12.1667C9.09602 12.1667 8.33268 11.4033 8.33268 10.5C8.33268 9.59666 9.09602 8.83332 9.99935 8.83332Z" fill="#626C70"/>
<path id="Vector_2" d="M2.37163 13.9467L3.20496 15.3883C3.64746 16.1525 4.71246 16.4392 5.47996 15.9967L5.9208 15.7417C6.40291 16.1209 6.93447 16.4327 7.5008 16.6683V17.1667C7.5008 18.0858 8.2483 18.8333 9.16746 18.8333H10.8341C11.7533 18.8333 12.5008 18.0858 12.5008 17.1667V16.6683C13.0669 16.4326 13.5984 16.1212 14.0808 15.7425L14.5216 15.9975C15.2908 16.4392 16.3533 16.1542 16.7975 15.3883L17.63 13.9475C17.8508 13.5647 17.9107 13.11 17.7965 12.6831C17.6823 12.2562 17.4033 11.8921 17.0208 11.6708L16.6 11.4275C16.6894 10.813 16.6894 10.1887 16.6 9.57416L17.0208 9.33082C17.4031 9.10935 17.6819 8.74527 17.7961 8.31845C17.9104 7.89164 17.8506 7.43696 17.63 7.05416L16.7975 5.61332C16.355 4.84666 15.2908 4.55916 14.5216 5.00332L14.0808 5.25832C13.5987 4.87908 13.0671 4.56732 12.5008 4.33166V3.83332C12.5008 2.91416 11.7533 2.16666 10.8341 2.16666H9.16746C8.2483 2.16666 7.5008 2.91416 7.5008 3.83332V4.33166C6.93466 4.56736 6.40315 4.87881 5.9208 5.25749L5.47996 5.00249C4.70996 4.55999 3.64663 4.84666 3.20413 5.61249L2.37163 7.05332C2.15078 7.43607 2.09089 7.89083 2.20511 8.31771C2.31933 8.74459 2.59832 9.10867 2.9808 9.32999L3.40163 9.57332C3.31182 10.1876 3.31182 10.8116 3.40163 11.4258L2.9808 11.6692C2.59843 11.8908 2.31957 12.255 2.20537 12.682C2.09118 13.1089 2.15097 13.5637 2.37163 13.9467ZM5.1433 11.6483C5.0492 11.2728 5.00134 10.8871 5.0008 10.5C5.0008 10.115 5.04913 9.72832 5.14246 9.35166C5.18641 9.1761 5.17196 8.991 5.10128 8.82439C5.03061 8.65778 4.90757 8.51874 4.7508 8.42832L3.81496 7.88666L4.64663 6.44582L5.6008 6.99749C5.7564 7.08753 5.93701 7.12467 6.11552 7.10333C6.29403 7.082 6.4608 7.00333 6.5908 6.87916C7.15456 6.34295 7.8344 5.944 8.57746 5.71332C8.74815 5.66121 8.8976 5.55568 9.00381 5.41226C9.11002 5.26885 9.16739 5.09512 9.16746 4.91666V3.83332H10.8341V4.91666C10.8342 5.09512 10.8916 5.26885 10.9978 5.41226C11.104 5.55568 11.2534 5.66121 11.4241 5.71332C12.167 5.94433 12.8468 6.34324 13.4108 6.87916C13.5409 7.00309 13.7077 7.08159 13.8861 7.10292C14.0646 7.12425 14.2451 7.08726 14.4008 6.99749L15.3541 6.44666L16.1875 7.88749L15.2508 8.42832C15.0941 8.51884 14.9712 8.65789 14.9005 8.82447C14.8298 8.99105 14.8153 9.1761 14.8591 9.35166C14.9525 9.72832 15.0008 10.115 15.0008 10.5C15.0008 10.8842 14.9525 11.2708 14.8583 11.6483C14.8146 11.824 14.8292 12.0091 14.9 12.1757C14.9708 12.3423 15.094 12.4813 15.2508 12.5717L16.1866 13.1125L15.355 14.5533L14.4008 14.0025C14.2452 13.9123 14.0646 13.8751 13.886 13.8964C13.7075 13.9178 13.5407 13.9965 13.4108 14.1208C12.847 14.657 12.1672 15.056 11.4241 15.2867C11.2534 15.3388 11.104 15.4443 10.9978 15.5877C10.8916 15.7311 10.8342 15.9049 10.8341 16.0833L10.8358 17.1667H9.16746V16.0833C9.16739 15.9049 9.11002 15.7311 9.00381 15.5877C8.8976 15.4443 8.74815 15.3388 8.57746 15.2867C7.83455 15.0556 7.15478 14.6567 6.5908 14.1208C6.46105 13.9962 6.29417 13.9172 6.1155 13.896C5.93683 13.8748 5.75612 13.9125 5.6008 14.0033L4.64746 14.555L3.81413 13.1142L4.7508 12.5717C4.90762 12.4813 5.03075 12.3423 5.10157 12.1757C5.17238 12.0091 5.18703 11.824 5.1433 11.6483Z" fill="#626C70"/>
</g>
</svg>
