<svg width="20" height="21" viewBox="0 0 20 21" fill="none" xmlns="http://www.w3.org/2000/svg">
<g id="bx-briefcase-alt-2 2">
<path id="Vector" d="M16.666 5.49999H14.166V3.83332C14.166 2.91416 13.4185 2.16666 12.4993 2.16666H7.49935C6.58018 2.16666 5.83268 2.91416 5.83268 3.83332V5.49999H3.33268C2.41352 5.49999 1.66602 6.24749 1.66602 7.16666V16.3333C1.66602 17.2525 2.41352 18 3.33268 18H16.666C17.5852 18 18.3327 17.2525 18.3327 16.3333V7.16666C18.3327 6.24749 17.5852 5.49999 16.666 5.49999ZM12.4993 3.83332V5.49999H7.49935V3.83332H12.4993ZM3.33268 7.16666H16.666V10.5H14.166V8.83332H12.4993V10.5H7.49935V8.83332H5.83268V10.5H3.33268V7.16666ZM3.33268 16.3333V12.1667H5.83268V13.8333H7.49935V12.1667H12.4993V13.8333H14.166V12.1667H16.6668V16.3333H3.33268Z" fill="#626C70"/>
</g>
</svg>
