<svg width="30" height="30" viewBox="0 0 30 30" fill="none" xmlns="http://www.w3.org/2000/svg">
<g id="bx-briefcase-alt-2 1">
<path id="Vector" d="M25 7.5H21.25V5C21.25 3.62125 20.1287 2.5 18.75 2.5H11.25C9.87125 2.5 8.75 3.62125 8.75 5V7.5H5C3.62125 7.5 2.5 8.62125 2.5 10V23.75C2.5 25.1287 3.62125 26.25 5 26.25H25C26.3787 26.25 27.5 25.1287 27.5 23.75V10C27.5 8.62125 26.3787 7.5 25 7.5ZM18.75 5V7.5H11.25V5H18.75ZM5 10H25V15H21.25V12.5H18.75V15H11.25V12.5H8.75V15H5V10ZM5 23.75V17.5H8.75V20H11.25V17.5H18.75V20H21.25V17.5H25.0012V23.75H5Z" fill="#0A65CC"/>
</g>
</svg>
