<svg width="20" height="21" viewBox="0 0 20 21" fill="none" xmlns="http://www.w3.org/2000/svg">
<g id="bx-user-circle (1) 1">
<path id="Vector" d="M9.99935 2.16666C7.79794 2.19473 5.69459 3.08172 4.13784 4.63848C2.58108 6.19524 1.69409 8.29858 1.66602 10.5C1.67631 11.7824 1.98245 13.0452 2.56061 14.1899C3.13877 15.3347 3.97334 16.3305 4.99935 17.1V17.1667H5.08268C6.49367 18.2479 8.22172 18.8339 9.99935 18.8339C11.777 18.8339 13.505 18.2479 14.916 17.1667H14.9993V17.1C16.0254 16.3305 16.8599 15.3347 17.4381 14.1899C18.0162 13.0452 18.3224 11.7824 18.3327 10.5C18.3046 8.29858 17.4176 6.19524 15.8609 4.63848C14.3041 3.08172 12.2008 2.19473 9.99935 2.16666ZM6.72435 16.275C6.846 15.7179 7.15447 15.2191 7.59859 14.8613C8.0427 14.5036 8.59576 14.3085 9.16602 14.3083H10.8327C11.4029 14.3085 11.956 14.5036 12.4001 14.8613C12.8442 15.2191 13.1527 15.7179 13.2743 16.275C12.2817 16.859 11.151 17.167 9.99935 17.167C8.84768 17.167 7.71696 16.859 6.72435 16.275ZM14.6743 15.2C14.3574 14.4424 13.8236 13.7955 13.1401 13.3403C12.4566 12.8851 11.6539 12.6421 10.8327 12.6417H9.16602C8.34483 12.6421 7.54208 12.8851 6.85858 13.3403C6.17508 13.7955 5.64133 14.4424 5.32435 15.2C4.6999 14.5858 4.2026 13.8546 3.86086 13.0482C3.51912 12.2417 3.33964 11.3758 3.33268 10.5C3.3543 8.7386 4.06362 7.05543 5.3092 5.80984C6.55479 4.56426 8.23795 3.85494 9.99935 3.83332C11.7607 3.85494 13.4439 4.56426 14.6895 5.80984C15.9351 7.05543 16.6444 8.7386 16.666 10.5C16.6591 11.3758 16.4796 12.2417 16.1378 13.0482C15.7961 13.8546 15.2988 14.5858 14.6743 15.2Z" fill="#626C70"/>
<path id="Vector_2" d="M10.0002 5.5C9.55969 5.48974 9.12164 5.56894 8.71258 5.73282C8.30352 5.89671 7.93196 6.14186 7.62036 6.45346C7.30876 6.76506 7.06361 7.13662 6.89972 7.54568C6.73584 7.95474 6.65664 8.39279 6.6669 8.83333C6.65664 9.27388 6.73584 9.71193 6.89972 10.121C7.06361 10.53 7.30876 10.9016 7.62036 11.2132C7.93196 11.5248 8.30352 11.77 8.71258 11.9338C9.12164 12.0977 9.55969 12.1769 10.0002 12.1667C10.4408 12.1769 10.8788 12.0977 11.2879 11.9338C11.6969 11.77 12.0685 11.5248 12.3801 11.2132C12.6917 10.9016 12.9369 10.53 13.1007 10.121C13.2646 9.71193 13.3438 9.27388 13.3336 8.83333C13.3438 8.39279 13.2646 7.95474 13.1007 7.54568C12.9369 7.13662 12.6917 6.76506 12.3801 6.45346C12.0685 6.14186 11.6969 5.89671 11.2879 5.73282C10.8788 5.56894 10.4408 5.48974 10.0002 5.5ZM10.0002 10.5C9.77852 10.5107 9.55703 10.4749 9.34996 10.395C9.1429 10.315 8.95485 10.1926 8.7979 10.0357C8.64094 9.87871 8.51855 9.69066 8.43859 9.4836C8.35862 9.27654 8.32285 9.05504 8.33357 8.83333C8.32285 8.61162 8.35862 8.39012 8.43859 8.18306C8.51855 7.976 8.64094 7.78795 8.7979 7.631C8.95485 7.47404 9.1429 7.35165 9.34996 7.27169C9.55703 7.19172 9.77852 7.15595 10.0002 7.16667C10.2219 7.15595 10.4434 7.19172 10.6505 7.27169C10.8576 7.35165 11.0456 7.47404 11.2026 7.631C11.3595 7.78795 11.4819 7.976 11.5619 8.18306C11.6418 8.39012 11.6776 8.61162 11.6669 8.83333C11.6776 9.05504 11.6418 9.27654 11.5619 9.4836C11.4819 9.69066 11.3595 9.87871 11.2026 10.0357C11.0456 10.1926 10.8576 10.315 10.6505 10.395C10.4434 10.4749 10.2219 10.5107 10.0002 10.5Z" fill="#626C70"/>
</g>
</svg>
