<svg width="20" height="21" viewBox="0 0 20 21" fill="none" xmlns="http://www.w3.org/2000/svg">
<g id="bxs-user-detail 1">
<path id="Vector" d="M12.4993 9.66666H18.3327V11.3333H12.4993V9.66666ZM13.3327 13H18.3327V14.6667H13.3327V13ZM11.666 6.33332H18.3327V7.99999H11.666V6.33332ZM3.33268 16.3333H11.666V15.5C11.666 13.2025 9.79685 11.3333 7.49935 11.3333H5.83268C3.53518 11.3333 1.66602 13.2025 1.66602 15.5V16.3333H3.33268ZM6.66602 10.5C8.32852 10.5 9.58268 9.24582 9.58268 7.58332C9.58268 5.92082 8.32852 4.66666 6.66602 4.66666C5.00352 4.66666 3.74935 5.92082 3.74935 7.58332C3.74935 9.24582 5.00352 10.5 6.66602 10.5Z" fill="#626C70"/>
</g>
</svg>
