<svg xmlns="http://www.w3.org/2000/svg" id="Calque_2" data-name="Calque 2" viewBox="0 0 207.91 137.72"><defs><style>      .cls-1 {        fill: #fc5e61;      }      .cls-2 {        stroke-width: 4px;      }      .cls-2, .cls-3 {        fill: #006;        stroke: #006;        stroke-miterlimit: 10;      }      .cls-3 {        stroke-width: 3.54px;      }    </style></defs><g id="Calque_1-2" data-name="Calque 1"><path class="cls-2" d="m102.51,135.72c-35.05,0-68.57-21.78-99.66-64.76-1.09-1.5-1.13-3.52-.1-5.05C4.44,63.36,44.96,3.41,103.37,2.03c35.79-.95,69.98,20.59,101.67,63.7h0c1.1,1.5,1.15,3.51.14,5.06-1.7,2.59-42.23,63.53-100.69,64.91-.67,0-1.33.02-1.99.02h0ZM11.91,68.33c29.3,39.56,60.43,59.25,92.35,58.51,47.37-1.09,83.54-47.04,91.75-58.39-29.31-38.93-60.46-58.21-92.38-57.54C56.29,11.99,20.15,57.12,11.91,68.32h0Z"></path><g><path class="cls-3" d="m128.49,37.26c.74-1.48,1.3-3.15,1.3-5,0-5.93-5-10.75-10.93-10.75-5,0-9.08,3.34-10.38,7.97-1.48-.18-2.96-.37-4.45-.37-22.43,0-40.78,18.17-40.78,40.78s18.17,40.78,40.78,40.78,40.78-18.17,40.78-40.78c0-12.97-6.12-24.83-16.31-32.62h0Zm-9.64-12.05c3.89,0,7.04,3.15,7.04,7.04,0,3.89-3.15,7.04-7.04,7.04s-7.04-3.15-7.04-7.04,3.15-7.04,7.04-7.04Zm-14.83,81.55c-20.39,0-37.07-16.49-37.07-37.07s16.5-37.07,37.07-37.07c1.3,0,2.78.18,4.08.18.37,5.56,5,10.01,10.75,10.01,2.78,0,5.38-1.11,7.23-2.78,9.27,7.04,14.83,17.98,14.83,29.65.19,20.58-16.49,37.07-36.88,37.07h0Z"></path><path class="cls-3" d="m104.03,49.31c-11.3,0-20.39,9.27-20.39,20.39,0,9.08,5.93,16.87,14.46,19.46.93,3.89,4.26,6.67,8.34,6.67,4.63,0,8.52-3.89,8.52-8.52v-.37c5.93-3.71,9.64-10.19,9.64-17.24-.18-11.12-9.26-20.39-20.57-20.39h0Zm2.41,43c-2.6,0-4.82-2.22-4.82-4.82s2.22-4.82,4.82-4.82,4.82,2.22,4.82,4.82-2.22,4.82-4.82,4.82Zm7.42-8.9c-1.48-2.78-4.26-4.45-7.41-4.45-4.08,0-7.41,2.78-8.34,6.49-6.49-2.41-10.75-8.52-10.75-15.75,0-9.27,7.6-16.68,16.68-16.68s16.68,7.6,16.68,16.68c0,5.56-2.6,10.56-6.86,13.71Z"></path></g><circle class="cls-1" cx="106.44" cy="87.49" r="10.32"></circle><circle class="cls-1" cx="118.86" cy="32.26" r="12.68"></circle></g></svg>